<svg width="86" height="99" viewBox="0 0 86 99" fill="none" xmlns="http://www.w3.org/2000/svg">
<path d="M25.52 94.01C26.79 92.73 26.79 90.66 25.52 89.38C8.97 72.77 9.54 73.34 8.97 72.77C7.74 71.53 5.6 71.54 4.37 72.77L0 77.15L21.15 98.38L25.51 94.01H25.52Z" fill="#444444"/>
<path d="M26.9601 84.5496C30.6601 82.4496 28.9301 82.6796 50.1101 84.3696C52.0201 84.5196 53.7201 84.0296 55.0001 82.9596L84.8801 58.4396C86.2701 57.2796 85.3801 54.3896 83.5201 52.8796C82.3301 51.9196 80.9101 51.5996 80.0301 52.0896C79.1701 52.8596 73.6501 57.7296 66.8101 62.4096C67.1001 64.2096 66.2901 65.8496 64.5401 66.7896L53.6401 72.5996C51.2801 74.1996 46.7901 72.5196 45.1101 72.6096C43.1101 72.7196 42.9601 69.7296 44.9301 69.6096C46.7501 69.5096 51.0401 70.7796 51.9601 70.0996L63.1301 64.1296C65.2801 62.9896 62.3401 59.5896 59.4101 60.0296C46.8701 61.8796 47.1801 61.8696 46.8601 61.8196C30.9101 59.7596 30.8001 59.7896 27.8801 60.5596C24.8801 61.3396 22.3601 63.1896 20.5901 65.9096C19.2601 67.9396 16.9001 70.3696 13.5801 73.1396L25.6901 85.2996C25.9601 85.1196 26.3201 84.9096 26.9501 84.5496H26.9601Z" fill="#444444"/>
<circle cx="50" cy="26" r="26" fill="#EE562F"/>
<circle cx="50" cy="26" r="26" fill="url(#paint0_linear_2_4173)" fill-opacity="0.2"/>
<path d="M46.4515 31.2917C46.4515 29.9306 46.6737 28.7083 47.1182 27.625C47.5626 26.5417 48.4793 25.5972 49.8682 24.7917C50.2848 24.5417 50.7987 24.2639 51.4098 23.9583C52.0209 23.625 52.6182 23.2361 53.2015 22.7917C53.7848 22.3472 54.2709 21.8333 54.6598 21.25C55.0765 20.6389 55.2848 19.9444 55.2848 19.1667C55.2848 18.5833 55.1737 18.0694 54.9515 17.625C54.7293 17.1806 54.4376 16.8056 54.0765 16.5C53.7154 16.1944 53.2848 15.9722 52.7848 15.8333C52.3126 15.6667 51.8265 15.5833 51.3265 15.5833C50.7154 15.5833 50.1598 15.6944 49.6598 15.9167C49.1598 16.1111 48.7015 16.375 48.2848 16.7083C47.8959 17.0139 47.5348 17.375 47.2015 17.7917C46.8959 18.1806 46.6321 18.5556 46.4098 18.9167L42.7848 16.4167C43.1459 15.5556 43.6182 14.7917 44.2015 14.125C44.8126 13.4583 45.4932 12.9028 46.2432 12.4583C47.0209 11.9861 47.8543 11.6389 48.7432 11.4167C49.6321 11.1667 50.5487 11.0417 51.4932 11.0417C52.5487 11.0417 53.5904 11.1944 54.6182 11.5C55.6459 11.8056 56.5626 12.2917 57.3682 12.9583C58.2015 13.625 58.8682 14.4861 59.3682 15.5417C59.8959 16.5694 60.1598 17.8056 60.1598 19.25C60.1598 20.1389 60.0487 20.9306 59.8265 21.625C59.6321 22.2917 59.3404 22.9028 58.9515 23.4583C58.5626 24.0139 58.1043 24.5139 57.5765 24.9583C57.0487 25.4028 56.4515 25.8333 55.7848 26.25C55.2293 26.5833 54.6737 26.9028 54.1182 27.2083C53.5626 27.5139 53.0487 27.8611 52.5765 28.25C52.1321 28.6111 51.7571 29.0417 51.4515 29.5417C51.1737 30.0139 51.0348 30.5972 51.0348 31.2917H46.4515ZM46.5348 41V35.25H51.1598V41H46.5348Z" fill="white"/>
<defs>
<linearGradient id="paint0_linear_2_4173" x1="71.1875" y1="-2.44531e-06" x2="32.5066" y2="52.0927" gradientUnits="userSpaceOnUse">
<stop stop-color="white"/>
<stop offset="1" stop-color="white" stop-opacity="0"/>
</linearGradient>
</defs>
</svg>
