<svg width="103" height="100" viewBox="0 0 103 100" fill="none" xmlns="http://www.w3.org/2000/svg">
<path fill-rule="evenodd" clip-rule="evenodd" d="M27.6263 63.3992H25.1586V64.3159C25.1586 65.8674 24.1342 67.2073 22.6443 67.607C21.4105 67.9361 20.2698 68.4297 19.1756 69.0644C17.8486 69.8402 16.1725 69.6051 15.0783 68.5237L14.4497 67.8891L12.7037 69.6521C13.5185 70.4513 14.1471 70.992 14.31 72.2614C14.5196 73.8599 13.6349 74.5886 13.0762 76.0226C12.8201 76.7278 12.6572 77.1274 12.4476 77.9032C12.0519 79.4076 10.7249 80.4419 9.18843 80.4419H8.2805V82.9337C9.42123 82.9337 10.236 82.8632 11.2371 83.6389C12.4476 84.5792 12.3778 85.5665 12.8434 86.7184L13.0529 87.2591L13.891 88.9751C14.6592 90.315 14.4264 92.0075 13.3556 93.0889L12.7037 93.7471L14.4497 95.5101L15.1016 94.8754C16.1492 93.7706 17.8486 93.559 19.1756 94.3348C19.711 94.6403 20.2698 94.9224 20.875 95.181C21.4338 95.4161 22.039 95.6276 22.6676 95.7922C24.1575 96.1918 25.1819 97.5317 25.1819 99.0832V100H27.6495C27.6495 98.8481 27.5797 98.0254 28.3479 97.0146C28.7903 96.4269 29.4188 95.9803 30.1638 95.7922C31.3744 95.4631 32.5384 94.9695 33.6325 94.3348C34.9595 93.559 36.6357 93.7941 37.7065 94.8754L38.3351 95.5101L40.0811 93.7471L39.4526 93.0889C38.3584 91.984 38.1489 90.315 38.9171 88.9751C39.5457 87.8938 40.0346 86.6949 40.3605 85.4725C40.7562 83.968 42.0832 82.9337 43.6197 82.9337H44.5276V80.4419C43.4102 80.4419 42.5721 80.5125 41.571 79.7367C40.3605 78.7964 40.4303 77.8091 39.9647 76.6573C39.6155 75.764 39.4526 75.3174 38.9171 74.4006C38.1489 73.0607 38.3584 71.3681 39.4526 70.2868L40.0811 69.6521L38.3351 67.8891L37.7065 68.5237C36.6124 69.6051 34.9595 69.8402 33.6325 69.0644C32.5616 68.4297 31.3744 67.9361 30.1638 67.607C28.6739 67.2073 27.6495 65.8674 27.6495 64.3159V63.3992H27.6263ZM37.0547 81.5938C37.0547 75.67 32.3056 70.8745 26.439 70.8745C20.5724 70.8745 15.8233 75.67 15.8233 81.5938C15.8233 87.5176 20.5724 92.3131 26.439 92.3131C32.3056 92.3131 37.0547 87.5176 37.0547 81.5938Z" fill="#EE562F"/>
<path d="M31.3744 76.6103C28.6506 73.8599 24.2274 73.8599 21.5036 76.6103C18.7798 79.3606 18.7798 83.827 21.5036 86.5773C24.2274 89.3277 28.6506 89.3277 31.3744 86.5773C34.0981 83.827 34.0981 79.3606 31.3744 76.6103Z" fill="#444444"/>
<path fill-rule="evenodd" clip-rule="evenodd" d="M77.7949 31.6878H75.3505V32.6046C75.3505 34.1561 74.3261 35.496 72.8362 35.8956C71.6024 36.2247 70.4616 36.7184 69.3675 37.3531C68.0405 38.1288 66.3643 37.8937 65.2702 36.8124L64.6416 36.1777L62.8956 37.9408C62.9454 37.9896 62.9945 38.0375 63.0428 38.0846C63.7855 38.8088 64.3489 39.3582 64.5019 40.5501C64.6462 41.6504 64.2719 42.3387 63.8424 43.1285C63.648 43.486 63.4422 43.8644 63.2681 44.3112C63.2236 44.4338 63.1819 44.547 63.1423 44.6547C62.954 45.1667 62.8127 45.5508 62.6395 46.1918C62.2438 47.6963 60.9168 48.7306 59.3803 48.7306H58.4724V51.2224C58.5619 51.2224 58.6494 51.2219 58.7352 51.2215C59.7421 51.2165 60.5065 51.2127 61.429 51.9276C62.308 52.6104 62.5119 53.3179 62.7359 54.0953C62.8204 54.3885 62.9078 54.6916 63.0353 55.0071L63.2448 55.5477L64.0829 57.2638C64.8511 58.6037 64.6416 60.2962 63.5475 61.3775L62.8956 62.0357L64.6416 63.7988L65.2702 63.1641C66.3178 62.0592 68.0172 61.8477 69.3442 62.6234C69.8796 62.929 70.4384 63.2111 71.0204 63.4697C71.5791 63.7048 72.1844 63.9163 72.8129 64.0809C74.3029 64.4805 75.3272 65.8204 75.3272 67.3719V68.2887H77.7949C77.7949 68.2462 77.7948 68.2041 77.7946 68.1625L77.7945 68.1222C77.7943 68.089 77.7942 68.056 77.794 68.0234C77.7891 67.0065 77.7853 66.2347 78.4933 65.3033C78.9356 64.7156 79.5642 64.2689 80.3091 64.0809C81.5197 63.7518 82.6837 63.2581 83.7779 62.6234C85.1048 61.8477 86.781 62.0828 87.8519 63.1641L88.4804 63.7988L90.2264 62.0357L89.5979 61.3775C88.5037 60.2727 88.2942 58.6037 89.0624 57.2638C89.691 56.1824 90.1799 54.9836 90.5058 53.7612C90.9016 52.2567 92.2285 51.2224 93.765 51.2224H94.6729V48.7306C94.6313 48.7306 94.59 48.7307 94.549 48.7309C94.5041 48.731 94.4596 48.7312 94.4155 48.7315C93.4233 48.7365 92.6391 48.7404 91.7164 48.0254C90.8373 47.3426 90.6334 46.635 90.4094 45.8577C90.3249 45.5645 90.2376 45.2614 90.11 44.9459C90.091 44.8972 90.0725 44.8498 90.0544 44.8035L90.0494 44.7906C89.7401 43.9977 89.5659 43.5513 89.0624 42.6892C88.2942 41.3493 88.5037 39.6568 89.5979 38.5755L90.2264 37.9408L88.4804 36.1777L87.8519 36.8124C86.7577 37.9173 85.1048 38.1288 83.7779 37.3531C82.6837 36.7184 81.5197 36.2247 80.3091 35.8956C78.8192 35.496 77.7949 34.1561 77.7949 32.6046V31.6878ZM87.2466 49.906C87.2466 43.9821 82.4975 39.1867 76.6309 39.1867C70.7643 39.1867 66.0151 43.9821 66.0151 49.906C66.0151 55.8298 70.7643 60.6253 76.6309 60.6253C82.4975 60.6253 87.2466 55.8298 87.2466 49.906Z" fill="#EE562F"/>
<path fill-rule="evenodd" clip-rule="evenodd" d="M5.69641 85.6135C5.06785 84.9789 4.67209 84.1326 4.67209 83.1688V80.1834C4.67209 79.2196 5.06785 78.3498 5.69641 77.7386C5.4856 77.7386 5.2792 77.7355 5.07684 77.7325C3.60322 77.7105 2.34401 77.6917 1.15679 78.8905C-1.33418 81.4057 0.504951 85.6135 3.90384 85.6135H5.69641ZM47.1117 77.7386C47.7403 78.3733 48.136 79.2196 48.136 80.1834V83.1688C48.136 84.1326 47.7403 85.0024 47.1117 85.6135H99.0962C102.518 85.6135 104.334 81.3822 101.843 78.8905C101.122 78.1617 100.144 77.7386 99.0962 77.7386H47.1117ZM8.54297 19.5337C8.54296 19.5337 8.54297 19.5337 8.54297 19.5337V19.5337ZM5.69641 22.2144C5.06785 21.5797 4.67209 20.7334 4.67209 19.7696V16.7842C4.67209 15.8204 5.06785 14.9506 5.69641 14.3394C5.4856 14.3394 5.2792 14.3364 5.07684 14.3333C3.60322 14.3113 2.34401 14.2925 1.15679 15.4913C-1.33418 18.0066 0.504951 22.2144 3.90384 22.2144H5.69641ZM47.1117 14.3394C47.7403 14.9741 48.136 15.8204 48.136 16.7842V19.7696C48.136 20.7334 47.7403 21.6032 47.1117 22.2144H99.0962C102.518 22.2144 104.334 17.9831 101.843 15.4913C101.122 14.7626 100.144 14.3394 99.0962 14.3394H47.1117ZM31.3744 13.2111C28.6506 10.4607 24.2274 10.4607 21.5036 13.2111C18.7798 15.9614 18.7798 20.4278 21.5036 23.1782C24.2274 25.9285 28.6506 25.9285 31.3744 23.1782C34.0981 20.4278 34.0981 15.9614 31.3744 13.2111ZM55.8883 53.9257C55.2597 53.291 54.864 52.4448 54.864 51.481V48.4955C54.864 47.5317 55.2597 46.662 55.8883 46.0508H3.90384C0.481671 46.0508 -1.33418 50.2821 1.15679 52.7739C1.8552 53.5026 2.83296 53.9257 3.90384 53.9257H55.8883ZM97.2803 46.0273C97.9322 46.662 98.3046 47.5082 98.3046 48.472V51.4575C98.3046 52.4212 97.9089 53.291 97.2803 53.9022C97.4911 53.9022 97.6975 53.9053 97.8999 53.9083C99.3735 53.9303 100.633 53.9492 101.82 52.7504C104.311 50.2351 102.472 46.0273 99.0729 46.0273H97.2803ZM81.5663 44.8989C78.8425 42.1486 74.4193 42.1486 71.6955 44.8989C68.9717 47.6493 68.9717 52.1157 71.6955 54.866C74.4193 57.6164 78.8425 57.6164 81.5663 54.866C84.29 52.1157 84.29 47.6728 81.5663 44.8989Z" fill="#444444"/>
<path fill-rule="evenodd" clip-rule="evenodd" d="M27.6263 0H25.1586V0.916784C25.1586 2.46826 24.1342 3.80818 22.6443 4.2078C21.4105 4.53691 20.2698 5.03056 19.1756 5.66526C17.8486 6.441 16.1725 6.20592 15.0783 5.12459L14.4497 4.48989L12.7037 6.25294C12.7535 6.30177 12.8026 6.34964 12.8509 6.39677C13.5936 7.12098 14.157 7.67041 14.31 8.86225C14.4543 9.96262 14.08 10.6508 13.6505 11.4407C13.4561 11.7982 13.2503 12.1766 13.0762 12.6234C13.0318 12.7458 12.9901 12.859 12.9505 12.9666L12.9504 12.9668C12.7621 13.4788 12.6208 13.863 12.4476 14.504C12.0519 16.0085 10.7249 17.0428 9.18843 17.0428H8.2805V19.5346C8.36991 19.5346 8.45732 19.5341 8.54297 19.5337C8.54307 19.5337 8.54317 19.5337 8.54327 19.5337C9.55025 19.5287 10.3146 19.5249 11.2371 20.2398C12.1161 20.9226 12.32 21.6301 12.544 22.4075C12.6285 22.7007 12.7159 23.0038 12.8434 23.3192L13.0529 23.8599L13.891 25.5759C14.6592 26.9158 14.4264 28.6084 13.3556 29.6897L12.7037 30.3479L14.4497 32.111L15.1016 31.4763C16.1492 30.3714 17.8486 30.1599 19.1756 30.9356C19.711 31.2412 20.2698 31.5233 20.875 31.7819C21.4338 32.0169 22.039 32.2285 22.6676 32.393C24.1575 32.7927 25.1819 34.1326 25.1819 35.6841V36.6008H27.6495C27.6495 36.5105 27.6491 36.4221 27.6487 36.3355C27.6437 35.3187 27.64 34.5469 28.3479 33.6154C28.7903 33.0277 29.4188 32.5811 30.1638 32.393C31.3744 32.0639 32.5384 31.5703 33.6325 30.9356C34.9595 30.1599 36.6357 30.3949 37.7065 31.4763L38.3351 32.111L40.0811 30.3479L39.4526 29.6897C38.3584 28.5849 38.1489 26.9158 38.9171 25.5759C39.5457 24.4946 40.0346 23.2957 40.3605 22.0733C40.7562 20.5689 42.0832 19.5346 43.6197 19.5346H44.5276V17.0428C44.4402 17.0428 44.3544 17.0432 44.2702 17.0436C43.278 17.0486 42.4937 17.0526 41.571 16.3376C40.692 15.6548 40.4881 14.9472 40.2641 14.1699C40.1796 13.8767 40.0922 13.5736 39.9647 13.2581C39.9439 13.2048 39.9237 13.1531 39.9041 13.1028C39.5947 12.3099 39.4206 11.8635 38.9171 11.0014C38.1489 9.66149 38.3584 7.96897 39.4526 6.88763L40.0811 6.25294L38.3351 4.48989L37.7065 5.12459C36.6124 6.22943 34.9595 6.441 33.6325 5.66526C32.5616 5.03056 31.3744 4.53691 30.1638 4.2078C28.6739 3.80818 27.6495 2.46826 27.6495 0.916784V0H27.6263ZM37.0547 18.1946C37.0547 12.2708 32.3056 7.47532 26.439 7.47532C20.5724 7.47532 15.8233 12.2708 15.8233 18.1946C15.8233 24.1185 20.5724 28.914 26.439 28.914C32.3056 28.914 37.0547 24.1185 37.0547 18.1946Z" fill="#EE562F"/>
</svg>
