<svg width="61" height="101" viewBox="0 0 61 101" fill="none" xmlns="http://www.w3.org/2000/svg">
<path d="M17.7766 64.6431H19.5216V53.6623H23.7725V43.4144H19.5216V32.4336H17.7766V43.4144H13.5234V53.6623H17.7766V64.6431ZM15.2673 45.1594H17.7755H19.5205H22.0263V51.9173H19.5205H17.7755H15.2673V45.1594Z" fill="#EE562F"/>
<path d="M29.629 64.6431H31.374V46.3181H35.6237V36.069H31.374V32.4336H29.629V36.0702H25.377V46.3193H29.629V64.6431ZM27.122 37.8152H29.629H31.374H33.8787V44.5743H31.374H29.629H27.122V37.8152Z" fill="#EE562F"/>
<path d="M41.4817 64.6431H43.2267V60.4911H47.4787V50.2432H43.2267V32.4336H41.4817V50.2444H37.2285V60.4923H41.4817V64.6431ZM38.9735 51.9883H41.4817H43.2267H45.7337V58.7461H43.2267H41.4817H38.9735V51.9883Z" fill="#EE562F"/>
<path d="M54.4678 0H6.53335C2.93047 0 0 2.93163 0 6.53335V94.096C0 97.6989 2.93163 100.629 6.53335 100.629H54.4666C58.0695 100.629 61 97.6977 61 94.096V6.53335C61.0012 2.93163 58.0695 0 54.4678 0ZM44.064 7.85491C44.064 9.01243 43.1205 9.95358 41.9642 9.95358C40.8055 9.95358 39.8643 9.01243 39.8643 7.85491C39.8643 6.69738 40.8055 5.75507 41.9642 5.75507C43.1217 5.75507 44.064 6.69738 44.064 7.85491ZM17.8096 6.9824H35.2656V8.72741H17.8096V6.9824ZM30.5006 94.9685C28.3542 94.9685 26.608 93.2235 26.608 91.076C26.608 88.9296 28.3542 87.1834 30.5006 87.1834C32.6469 87.1834 34.3931 88.9296 34.3931 91.076C34.3931 93.2235 32.6469 94.9685 30.5006 94.9685ZM59.2561 81.5237H1.74502V15.7086H59.2561V81.5237Z" fill="#444444"/>
</svg>
