<svg width="100" height="100" viewBox="0 0 100 100" fill="none" xmlns="http://www.w3.org/2000/svg">
<path d="M60.7142 44.6431H39.2856V62.5002H60.7142V44.6431Z" fill="#EE562F"/>
<path d="M60.7142 44.6431H39.2856V62.5002H60.7142V44.6431Z" fill="url(#paint0_linear_2_4128)" fill-opacity="0.15"/>
<path d="M89.2859 44.6427V28.5713H85.7144V42.857H71.4287V46.4284H87.5001C87.9737 46.4284 88.4279 46.2403 88.7628 45.9054C89.0977 45.5705 89.2859 45.1163 89.2859 44.6427Z" fill="#444444"/>
<path d="M85.7144 71.4284H89.2859V55.357C89.2859 54.8834 89.0977 54.4292 88.7628 54.0943C88.4279 53.7594 87.9737 53.5713 87.5001 53.5713H71.4287V57.1427H85.7144V71.4284Z" fill="#444444"/>
<path d="M14.2858 28.5713H10.7144V44.6427C10.7144 45.1163 10.9025 45.5705 11.2374 45.9054C11.5723 46.2403 12.0265 46.4284 12.5001 46.4284H28.5715V42.857H14.2858V28.5713Z" fill="#444444"/>
<path d="M10.7144 55.357V71.4284H14.2858V57.1427H28.5715V53.5713H12.5001C12.0265 53.5713 11.5723 53.7594 11.2374 54.0943C10.9025 54.4292 10.7144 54.8834 10.7144 55.357Z" fill="#444444"/>
<path d="M32.1431 62.5H35.7145V42.8571C35.7145 42.3835 35.9026 41.9293 36.2375 41.5945C36.5724 41.2596 37.0266 41.0714 37.5002 41.0714H62.5002C62.9738 41.0714 63.428 41.2596 63.7629 41.5945C64.0978 41.9293 64.2859 42.3835 64.2859 42.8571V62.5H67.8574V37.5H32.1431V62.5Z" fill="#EE562F"/>
<path d="M32.1431 62.5H35.7145V42.8571C35.7145 42.3835 35.9026 41.9293 36.2375 41.5945C36.5724 41.2596 37.0266 41.0714 37.5002 41.0714H62.5002C62.9738 41.0714 63.428 41.2596 63.7629 41.5945C64.0978 41.9293 64.2859 42.3835 64.2859 42.8571V62.5H67.8574V37.5H32.1431V62.5Z" fill="url(#paint1_linear_2_4128)" fill-opacity="0.15"/>
<path d="M49.9989 27.5654L37.6953 33.9279H62.3025L49.9989 27.5654Z" fill="#EE562F"/>
<path d="M49.9989 27.5654L37.6953 33.9279H62.3025L49.9989 27.5654Z" fill="url(#paint2_linear_2_4128)" fill-opacity="0.15"/>
<path d="M88.7626 7.66607L89.2858 8.18929V0H85.7144V8.18929L86.2376 7.66607C86.5724 7.3313 87.0266 7.14324 87.5001 7.14324C87.9736 7.14324 88.4277 7.3313 88.7626 7.66607Z" fill="#444444"/>
<path d="M98.2143 0H92.8571V12.5C92.8571 12.8531 92.7523 13.1983 92.5561 13.4919C92.3599 13.7855 92.081 14.0143 91.7547 14.1494C91.4285 14.2846 91.0695 14.3199 90.7232 14.251C90.3768 14.1822 90.0587 14.0122 89.8089 13.7625L87.5 11.4536L85.1911 13.7625C84.9413 14.0122 84.6232 14.1822 84.2768 14.251C83.9305 14.3199 83.5715 14.2846 83.2453 14.1494C82.919 14.0143 82.6401 13.7855 82.4439 13.4919C82.2477 13.1983 82.1429 12.8531 82.1429 12.5V0H76.7857C76.3121 0 75.8579 0.188138 75.523 0.523024C75.1881 0.85791 75 1.31211 75 1.78571V23.2143C75 23.6879 75.1881 24.1421 75.523 24.477C75.8579 24.8119 76.3121 25 76.7857 25H98.2143C98.6879 25 99.1421 24.8119 99.477 24.477C99.8119 24.1421 100 23.6879 100 23.2143V1.78571C100 1.31211 99.8119 0.85791 99.477 0.523024C99.1421 0.188138 98.6879 0 98.2143 0Z" fill="#444444"/>
<path d="M13.7626 7.66607L14.2858 8.18929V0H10.7144V8.18929L11.2376 7.66607C11.5724 7.3313 12.0266 7.14324 12.5001 7.14324C12.9736 7.14324 13.4277 7.3313 13.7626 7.66607Z" fill="#444444"/>
<path d="M1.78571 25H23.2143C23.6879 25 24.1421 24.8119 24.477 24.477C24.8119 24.1421 25 23.6879 25 23.2143V1.78571C25 1.31211 24.8119 0.85791 24.477 0.523024C24.1421 0.188138 23.6879 0 23.2143 0H17.8571V12.5C17.8571 12.8531 17.7523 13.1983 17.5561 13.4919C17.3599 13.7855 17.081 14.0143 16.7547 14.1494C16.4285 14.2846 16.0695 14.3199 15.7232 14.251C15.3768 14.1822 15.0587 14.0122 14.8089 13.7625L12.5 11.4536L10.1911 13.7625C9.94134 14.0122 9.62319 14.1822 9.27684 14.251C8.9305 14.3199 8.57151 14.2846 8.24526 14.1494C7.91901 14.0143 7.64015 13.7855 7.44393 13.4919C7.2477 13.1983 7.14293 12.8531 7.14286 12.5V0H1.78571C1.31211 0 0.85791 0.188138 0.523024 0.523024C0.188138 0.85791 0 1.31211 0 1.78571V23.2143C0 23.6879 0.188138 24.1421 0.523024 24.477C0.85791 24.8119 1.31211 25 1.78571 25Z" fill="#444444"/>
<path d="M85.7144 83.1893L86.2376 82.6661C86.5724 82.3313 87.0266 82.1432 87.5001 82.1432C87.9736 82.1432 88.4277 82.3313 88.7626 82.6661L89.2858 83.1893V75H85.7144V83.1893Z" fill="#444444"/>
<path d="M98.2143 75H92.8571V87.5C92.8571 87.8531 92.7523 88.1983 92.5561 88.4919C92.3599 88.7855 92.081 89.0143 91.7547 89.1494C91.4285 89.2846 91.0695 89.3199 90.7232 89.251C90.3768 89.1822 90.0587 89.0122 89.8089 88.7625L87.5 86.4536L85.1911 88.7625C84.9413 89.0122 84.6232 89.1822 84.2768 89.251C83.9305 89.3199 83.5715 89.2846 83.2453 89.1494C82.919 89.0143 82.6401 88.7855 82.4439 88.4919C82.2477 88.1983 82.1429 87.8531 82.1429 87.5V75H76.7857C76.3121 75 75.8579 75.1881 75.523 75.523C75.1881 75.8579 75 76.3121 75 76.7857V98.2143C75 98.6879 75.1881 99.1421 75.523 99.477C75.8579 99.8119 76.3121 100 76.7857 100H98.2143C98.6879 100 99.1421 99.8119 99.477 99.477C99.8119 99.1421 100 98.6879 100 98.2143V76.7857C100 76.3121 99.8119 75.8579 99.477 75.523C99.1421 75.1881 98.6879 75 98.2143 75Z" fill="#444444"/>
<path d="M23.2143 75H17.8571V87.5C17.8571 87.8531 17.7523 88.1983 17.5561 88.4919C17.3599 88.7855 17.081 89.0143 16.7547 89.1494C16.4285 89.2846 16.0695 89.3199 15.7232 89.251C15.3768 89.1822 15.0587 89.0122 14.8089 88.7625L12.5 86.4536L10.1911 88.7625C9.94134 89.0122 9.62319 89.1822 9.27684 89.251C8.9305 89.3199 8.57151 89.2846 8.24526 89.1494C7.91901 89.0143 7.64015 88.7855 7.44393 88.4919C7.2477 88.1983 7.14293 87.8531 7.14286 87.5V75H1.78571C1.31211 75 0.85791 75.1881 0.523024 75.523C0.188138 75.8579 0 76.3121 0 76.7857V98.2143C0 98.6879 0.188138 99.1421 0.523024 99.477C0.85791 99.8119 1.31211 100 1.78571 100H23.2143C23.6879 100 24.1421 99.8119 24.477 99.477C24.8119 99.1421 25 98.6879 25 98.2143V76.7857C25 76.3121 24.8119 75.8579 24.477 75.523C24.1421 75.1881 23.6879 75 23.2143 75Z" fill="#444444"/>
<path d="M13.7626 82.6661L14.2858 83.1893V75H10.7144V83.1893L11.2376 82.6661C11.5724 82.3313 12.0266 82.1432 12.5001 82.1432C12.9736 82.1432 13.4277 82.3313 13.7626 82.6661Z" fill="#444444"/>
<defs>
<linearGradient id="paint0_linear_2_4128" x1="60.7371" y1="44.6431" x2="51.0332" y2="39.6568" gradientUnits="userSpaceOnUse">
<stop stop-color="white"/>
<stop offset="1" stop-color="white" stop-opacity="0"/>
</linearGradient>
<linearGradient id="paint1_linear_2_4128" x1="67.8956" y1="37.5" x2="53.0189" y2="28.3998" gradientUnits="userSpaceOnUse">
<stop stop-color="white"/>
<stop offset="1" stop-color="white" stop-opacity="0"/>
</linearGradient>
<linearGradient id="paint2_linear_2_4128" x1="62.3288" y1="27.5654" x2="58.5652" y2="21.3327" gradientUnits="userSpaceOnUse">
<stop stop-color="white"/>
<stop offset="1" stop-color="white" stop-opacity="0"/>
</linearGradient>
</defs>
</svg>
