<svg width="100" height="100" viewBox="0 0 100 100" fill="none" xmlns="http://www.w3.org/2000/svg">
<path fill-rule="evenodd" clip-rule="evenodd" d="M86.6151 88.1419C86.6901 87.7641 86.8755 87.417 87.1478 87.1446C87.5121 86.7804 88.006 86.5758 88.5211 86.5757C89.0385 86.5776 89.5346 86.7818 89.9033 87.1446C90.1756 87.417 90.361 87.7641 90.436 88.1419C90.511 88.5197 90.4724 88.9112 90.3249 89.2671C90.1775 89.6229 89.9278 89.927 89.6075 90.141C89.2873 90.3549 88.9107 90.4691 88.5256 90.4691C88.1404 90.4691 87.7639 90.3549 87.4436 90.141C87.1233 89.927 86.8736 89.6229 86.7262 89.2671C86.5787 88.9112 86.5401 88.5197 86.6151 88.1419ZM89.4678 57.8305L100 56.1549H99.9978V43.8417L89.4655 42.1751C89.1383 42.1262 88.8337 41.9791 88.5918 41.7533C88.35 41.5276 88.1824 41.2337 88.1111 40.9107C87.1518 36.872 85.5515 33.0131 83.3711 29.4808C83.1997 29.1991 83.1153 28.8731 83.1283 28.5436C83.1414 28.2141 83.2513 27.8958 83.4444 27.6286L89.7089 19.0031L81 10.2943L72.3767 16.552C72.11 16.746 71.7917 16.8565 71.4622 16.8696C71.1327 16.8826 70.8067 16.7976 70.5256 16.6254C66.9906 14.4477 63.1299 12.8498 59.09 11.8921C58.7687 11.8149 58.4774 11.6446 58.2527 11.4024C58.0279 11.1603 57.8797 10.8571 57.8267 10.531L56.16 0H43.8389L42.1722 10.5332C42.1184 10.8586 41.9701 11.161 41.7456 11.4026C41.5212 11.6443 41.2305 11.8145 40.91 11.8921C36.8727 12.85 33.0152 14.4492 29.4844 16.6287C29.2017 16.8012 28.8743 16.8865 28.5433 16.8741C28.2123 16.8616 27.8924 16.7519 27.6233 16.5587L19 10.2943L10.3 19.0031L16.5556 27.6286C16.7491 27.8956 16.8595 28.2139 16.8727 28.5434C16.8859 28.873 16.8015 29.1991 16.63 29.4808C14.4468 33.0115 12.8513 36.8731 11.9056 40.9151C11.8272 41.238 11.655 41.5304 11.4105 41.7555C11.1661 41.9805 10.8605 42.1281 10.5322 42.1795L0 43.8462V56.1549L10.53 57.8294C10.858 57.8805 11.1635 58.0277 11.4079 58.2524C11.6524 58.477 11.8247 58.769 11.9033 59.0916C12.8504 63.1328 14.4467 66.9936 16.63 70.5237C16.8015 70.8054 16.8859 71.1315 16.8727 71.461C16.8595 71.7905 16.7491 72.1088 16.5556 72.3759L10.3 81.0024L19 89.7112L27.6233 83.4535C27.8904 83.26 28.2088 83.1501 28.5383 83.1377C28.8678 83.1252 29.1936 83.2108 29.4744 83.3835C33.0099 85.5595 36.8704 87.1563 40.91 88.1135C41.2303 88.1906 41.5208 88.3603 41.7455 88.6013C41.9701 88.8423 42.1189 89.1441 42.1733 89.469L43.84 100H56.1611L57.8278 89.4668C57.8813 89.1395 58.0306 88.8355 58.2569 88.593C58.4831 88.3506 58.7761 88.1806 59.0989 88.1046C61.902 87.4375 64.6224 86.4611 67.21 85.1935L59.0989 77.0825C54.2989 78.5558 49.1844 78.6692 44.3238 77.4102C39.4632 76.1512 35.0469 73.569 31.5658 69.9507C28.0847 66.3324 25.6751 61.8197 24.6049 56.9141C23.5346 52.0085 23.8456 46.9023 25.5033 42.1629C25.5961 41.8959 25.7552 41.6569 25.9657 41.4683C26.1763 41.2797 26.4313 41.1478 26.7069 41.0849C26.9824 41.022 27.2694 41.0303 27.5409 41.1088C27.8124 41.1874 28.0595 41.3337 28.2589 41.534L42.8544 56.1216L53.3122 53.3183L56.1233 42.8506L41.5322 28.2619C41.3325 28.0626 41.1869 27.8157 41.1092 27.5445C41.0314 27.2733 41.024 26.9868 41.0878 26.7119C41.1463 26.4361 41.2756 26.1804 41.4631 25.9697C41.6505 25.7591 41.8895 25.601 42.1567 25.5108C46.8955 23.853 52.0012 23.5415 56.9064 24.6111C61.8116 25.6807 66.3242 28.0894 69.9427 31.5695C73.5611 35.0497 76.1438 39.465 77.4036 44.3248C78.6634 49.1846 78.551 54.2985 77.0789 59.0982L85.19 67.2093C86.4579 64.6188 87.4375 61.897 88.1111 59.0927C88.1857 58.771 88.3547 58.4791 88.5965 58.2542C88.8382 58.0293 89.1416 57.8817 89.4678 57.8305Z" fill="#444444"/>
<path fill-rule="evenodd" clip-rule="evenodd" d="M96.01 95.8767L95.8722 96.0145C94.1299 97.7537 91.7686 98.7306 89.3067 98.7306C86.8448 98.7306 84.4835 97.7537 82.7411 96.0145L60.73 74.0025C60.5752 73.8478 60.3914 73.725 60.1891 73.6413C59.9868 73.5577 59.77 73.5146 59.5511 73.5147C59.3619 73.513 59.1738 73.5446 58.9956 73.6081C54.9837 75.0081 50.6703 75.3098 46.5026 74.4818C42.3349 73.6538 38.4644 71.7263 35.2924 68.8991C32.1203 66.0718 29.7621 62.4477 28.4621 58.4024C27.1621 54.357 26.9676 50.0375 27.8989 45.8917L41.1678 59.1605C41.3753 59.3664 41.633 59.5145 41.9154 59.5903C42.1978 59.6661 42.495 59.6669 42.7778 59.5927L55.1111 56.2894C55.3941 56.2156 55.6523 56.0678 55.8593 55.8612C56.0663 55.6546 56.2145 55.3967 56.2889 55.1138L59.5878 42.7806C59.6645 42.4976 59.6648 42.1993 59.5887 41.916C59.5126 41.6328 59.3627 41.3749 59.1544 41.1684L45.8889 27.9041C50.0354 26.9696 54.3564 27.1619 58.4035 28.461C62.4506 29.7601 66.0762 32.1187 68.9041 35.292C71.7319 38.4653 73.6589 42.3376 74.4851 46.507C75.3112 50.6764 75.0064 54.9909 73.6022 59.0027C73.5016 59.2991 73.4854 59.6177 73.5554 59.9228C73.6255 60.2279 73.779 60.5076 73.9989 60.7304L96.0122 82.7413C97.751 84.4848 98.7274 86.8467 98.7274 89.309C98.7274 91.7713 97.751 94.1332 96.0122 95.8767H96.01ZM85.1773 92.592C86.119 93.3682 87.3007 93.7939 88.5211 93.7967C89.2157 93.7994 89.904 93.6643 90.5461 93.3994C91.1882 93.1345 91.7715 92.745 92.2622 92.2534C93.1257 91.391 93.6635 90.2559 93.784 89.0415C93.9046 87.8271 93.6005 86.6084 92.9235 85.593C92.2465 84.5776 91.2385 83.8283 90.0711 83.4726C88.9037 83.1169 87.6491 83.1769 86.5209 83.6423C85.3927 84.1077 84.4608 84.9498 83.8837 86.0251C83.3066 87.1004 83.1202 88.3425 83.356 89.5399C83.5919 90.7373 84.2355 91.8159 85.1773 92.592Z" fill="#EE562F"/>
<path fill-rule="evenodd" clip-rule="evenodd" d="M96.01 95.8767L95.8722 96.0145C94.1299 97.7537 91.7686 98.7306 89.3067 98.7306C86.8448 98.7306 84.4835 97.7537 82.7411 96.0145L60.73 74.0025C60.5752 73.8478 60.3914 73.725 60.1891 73.6413C59.9868 73.5577 59.77 73.5146 59.5511 73.5147C59.3619 73.513 59.1738 73.5446 58.9956 73.6081C54.9837 75.0081 50.6703 75.3098 46.5026 74.4818C42.3349 73.6538 38.4644 71.7263 35.2924 68.8991C32.1203 66.0718 29.7621 62.4477 28.4621 58.4024C27.1621 54.357 26.9676 50.0375 27.8989 45.8917L41.1678 59.1605C41.3753 59.3664 41.633 59.5145 41.9154 59.5903C42.1978 59.6661 42.495 59.6669 42.7778 59.5927L55.1111 56.2894C55.3941 56.2156 55.6523 56.0678 55.8593 55.8612C56.0663 55.6546 56.2145 55.3967 56.2889 55.1138L59.5878 42.7806C59.6645 42.4976 59.6648 42.1993 59.5887 41.916C59.5126 41.6328 59.3627 41.3749 59.1544 41.1684L45.8889 27.9041C50.0354 26.9696 54.3564 27.1619 58.4035 28.461C62.4506 29.7601 66.0762 32.1187 68.9041 35.292C71.7319 38.4653 73.6589 42.3376 74.4851 46.507C75.3112 50.6764 75.0064 54.9909 73.6022 59.0027C73.5016 59.2991 73.4854 59.6177 73.5554 59.9228C73.6255 60.2279 73.779 60.5076 73.9989 60.7304L96.0122 82.7413C97.751 84.4848 98.7274 86.8467 98.7274 89.309C98.7274 91.7713 97.751 94.1332 96.0122 95.8767H96.01ZM85.1773 92.592C86.119 93.3682 87.3007 93.7939 88.5211 93.7967C89.2157 93.7994 89.904 93.6643 90.5461 93.3994C91.1882 93.1345 91.7715 92.745 92.2622 92.2534C93.1257 91.391 93.6635 90.2559 93.784 89.0415C93.9046 87.8271 93.6005 86.6084 92.9235 85.593C92.2465 84.5776 91.2385 83.8283 90.0711 83.4726C88.9037 83.1169 87.6491 83.1769 86.5209 83.6423C85.3927 84.1077 84.4608 84.9498 83.8837 86.0251C83.3066 87.1004 83.1202 88.3425 83.356 89.5399C83.5919 90.7373 84.2355 91.8159 85.1773 92.592Z" fill="url(#paint0_linear_2_4098)" fill-opacity="0.2"/>
<defs>
<linearGradient id="paint0_linear_2_4098" x1="50" y1="-5.55549" x2="50" y2="100" gradientUnits="userSpaceOnUse">
<stop stop-color="white"/>
<stop offset="1" stop-color="white" stop-opacity="0"/>
</linearGradient>
</defs>
</svg>
