<svg width="115" height="99" viewBox="0 0 115 99" fill="none" xmlns="http://www.w3.org/2000/svg">
<path fill-rule="evenodd" clip-rule="evenodd" d="M57.5038 50.3788C56.4509 50.3788 55.3853 50.4821 54.3145 50.6976C45.6052 52.4513 39.9484 60.9494 41.7054 69.6426C43.4611 78.3358 51.9774 83.9795 60.6855 82.2296C64.9034 81.3802 68.5387 78.9429 70.9218 75.3641C73.3023 71.7853 74.1456 67.4961 73.2959 63.2859C71.7536 55.6602 65.0133 50.3788 57.5038 50.3788ZM57.4706 80.2629C58.3868 80.2629 59.3119 80.1724 60.2306 79.9874C67.7018 78.4837 72.5535 71.1935 71.047 63.7374C69.5405 56.2814 62.2329 51.4425 54.7668 52.9398C47.2969 54.4435 42.4439 61.7337 43.9492 69.1898C44.6801 72.8018 46.7743 75.915 49.8499 77.9544C52.1448 79.476 54.7783 80.2629 57.4706 80.2629Z" fill="#EE562F"/>
<path fill-rule="evenodd" clip-rule="evenodd" d="M62.8807 77.1611C62.8998 77.2562 62.9285 77.3571 62.9572 77.4581C62.9786 77.5333 63 77.6086 63.0174 77.6815C63.457 77.4672 63.8838 77.2326 64.2939 76.9685V67.1249C62.7325 70.1451 62.1767 73.6703 62.8807 77.1611ZM57.9229 65.8291C57.7964 65.7449 57.6508 65.7016 57.5013 65.7016C57.4502 65.7016 57.4003 65.7067 57.3492 65.7169C57.1499 65.7577 56.9774 65.8712 56.8649 66.0408C56.7525 66.2104 56.7129 66.4132 56.7525 66.6135C56.7934 66.8124 56.9084 66.9846 57.0783 67.0981C57.2496 67.2116 57.454 67.2499 57.6521 67.2104C58.0648 67.1275 58.3318 66.7244 58.2488 66.3125C58.2079 66.1148 58.0916 65.9413 57.9229 65.8291ZM56.5072 61.545C59.4844 60.9455 62.1779 59.4788 64.2939 57.3655V55.974C62.3057 54.6909 59.9597 53.9563 57.5026 53.9563C56.6835 53.9563 55.8555 54.0366 55.0224 54.205C53.4367 54.5238 51.9877 55.1399 50.7061 55.9689V61.5871C52.6074 61.9365 54.5726 61.9327 56.5072 61.545ZM57.4962 83.8379C55.1195 83.8379 52.8195 83.3367 50.7061 82.4375V99H64.2939V82.4617C63.2244 82.912 62.1038 83.2601 60.9398 83.4948C59.7859 83.7257 58.6321 83.8379 57.4962 83.8379ZM50.7061 69.089V76.9647C52.5499 78.1547 54.6276 78.8192 56.7666 78.9403C56.7547 78.8667 56.7454 78.7899 56.736 78.7131C56.7232 78.6078 56.7104 78.5026 56.6912 78.4059C55.9168 74.5746 53.7254 71.293 50.7061 69.089ZM90.8922 2.42073V0H86.1644V18.4412H90.8922V15.9975H115V2.42073H90.8922ZM94.6718 13.0896C93.9576 13.0896 93.38 12.5118 93.38 11.8001C93.38 11.0872 93.9588 10.5107 94.6718 10.5107C95.3861 10.5107 95.9637 11.0884 95.9637 11.8001C95.9637 12.5118 95.3848 13.0896 94.6718 13.0896ZM94.6718 7.93051C93.9576 7.93051 93.38 7.35275 93.38 6.64107C93.38 5.92811 93.9588 5.35163 94.6718 5.35163C95.3861 5.35163 95.9637 5.92939 95.9637 6.64107C95.9637 7.35275 95.3848 7.93051 94.6718 7.93051ZM48.2898 34.1938V38.8516H50.7061V50.4668C51.7756 50.0165 52.8962 49.6671 54.0602 49.4337C57.6303 48.7169 61.1698 49.1569 64.2939 50.4872V38.8516H66.7652V34.1938H48.2898ZM79.4497 0V2.42073H36.8038V0H32.1566V18.4412H36.8038V15.9975H41.8804C46.7475 15.9975 50.7073 19.95 50.7073 24.808V27.5132H48.2911V32.2258H66.7664V27.5132H64.2952V24.808C64.2952 19.95 68.2551 15.9975 73.1221 15.9975H79.4509V18.4412H84.1928V0H79.4497ZM40.6972 13.0896C39.9829 13.0896 39.4054 12.5118 39.4054 11.8001C39.4054 11.0872 39.9842 10.5107 40.6972 10.5107C41.4102 10.5107 41.9891 11.0884 41.9891 11.8001C41.9903 12.5118 41.4115 13.0896 40.6972 13.0896ZM40.6972 7.93051C39.9829 7.93051 39.4054 7.35275 39.4054 6.64107C39.4054 5.92811 39.9842 5.35163 40.6972 5.35163C41.4102 5.35163 41.9891 5.92939 41.9891 6.64107C41.9903 7.35275 41.4115 7.93051 40.6972 7.93051ZM75.5537 13.0896C74.8394 13.0896 74.2619 12.5118 74.2619 11.8001C74.2619 11.0872 74.8407 10.5107 75.5537 10.5107C76.2667 10.5107 76.8456 11.0884 76.8456 11.8001C76.8468 12.5118 76.268 13.0896 75.5537 13.0896ZM75.5537 7.93051C74.8394 7.93051 74.2619 7.35275 74.2619 6.64107C74.2619 5.92811 74.8407 5.35163 75.5537 5.35163C76.2667 5.35163 76.8456 5.92939 76.8456 6.64107C76.8468 7.35275 76.268 7.93051 75.5537 7.93051ZM25.5262 0V2.42073H0V15.9975H25.5249V18.4412H30.1849V0H25.5262ZM21.5804 13.0896C20.8661 13.0896 20.2886 12.5118 20.2886 11.8001C20.2886 11.0872 20.8674 10.5107 21.5804 10.5107C22.2947 10.5107 22.8722 11.0884 22.8722 11.8001C22.8722 12.5118 22.2947 13.0896 21.5804 13.0896ZM21.5804 7.93051C20.8661 7.93051 20.2886 7.35275 20.2886 6.64107C20.2886 5.92811 20.8674 5.35163 21.5804 5.35163C22.2947 5.35163 22.8722 5.92939 22.8722 6.64107C22.8722 7.35275 22.2947 7.93051 21.5804 7.93051Z" fill="#444444"/>
<path fill-rule="evenodd" clip-rule="evenodd" d="M68.494 60.4864C67.85 59.3079 67.0309 58.2519 66.0701 57.354C65.9129 57.5376 65.7519 57.7162 65.5871 57.8909V57.896H65.5819C63.2347 60.3958 60.1693 62.1228 56.7627 62.8089C55.6702 63.0283 54.5662 63.138 53.4699 63.138C50.9054 63.138 48.3741 62.5436 46.0664 61.3907C45.5311 62.5883 45.172 63.8701 45.0353 65.2029C47.0465 65.6135 48.9236 66.389 50.6013 67.4578H50.7073V67.5241C54.3733 69.8989 57.0553 73.6793 57.9587 78.1508C57.9896 78.305 58.0102 78.4719 58.0308 78.6391C58.0435 78.7416 58.0561 78.8443 58.0712 78.9441C58.7049 78.9135 59.3413 78.8498 59.9763 78.7222C60.6114 78.5947 61.2222 78.4072 61.8189 78.1891C61.7937 78.0897 61.765 77.9886 61.7363 77.8876C61.6906 77.727 61.6451 77.5669 61.6144 77.4149C60.2932 70.8708 63.0456 64.2081 68.494 60.4864ZM57.4962 68.5177C57.6329 68.5177 57.7696 68.5036 57.9063 68.4756C59.018 68.2511 59.7387 67.167 59.5151 66.0587C59.4064 65.5204 59.0947 65.0587 58.6372 64.7552C58.1811 64.4517 57.6342 64.3445 57.0949 64.4529C56.5557 64.5601 56.0932 64.8713 55.7891 65.3266C55.4837 65.7845 55.3763 66.3316 55.4849 66.8686C55.5936 67.4068 55.9053 67.8685 56.3615 68.172C56.7039 68.399 57.0949 68.5177 57.4962 68.5177Z" fill="#EE562F"/>
</svg>
