<svg width="79" height="101" viewBox="0 0 79 101" fill="none" xmlns="http://www.w3.org/2000/svg">
<path d="M46.682 10.7725H32.3184V17.9543H46.682V10.7725Z" fill="#EE562F"/>
<path d="M46.682 10.7725H32.3184V17.9543H46.682V10.7725Z" fill="url(#paint0_linear_2_4153)" fill-opacity="0.2"/>
<path d="M49.8242 47.1943C49.6315 46.5484 49.3783 45.9222 49.0679 45.3239C48.8924 44.9853 48.8292 44.5997 48.8876 44.2228C48.9459 43.846 49.1227 43.4975 49.3924 43.2279L51.325 41.2955L48.4776 38.4484L46.5453 40.3808C46.2757 40.6504 45.9272 40.8272 45.5503 40.8856C45.1735 40.9439 44.7878 40.8808 44.4493 40.7053C43.851 40.3949 43.2248 40.1417 42.5789 39.949C42.2082 39.8386 41.883 39.6114 41.6518 39.3013C41.4206 38.9913 41.2958 38.6148 41.2958 38.228V35.9092H37.7049V38.228C37.7049 38.6148 37.5801 38.9913 37.3489 39.3013C37.1177 39.6114 36.7925 39.8386 36.4218 39.949C35.7759 40.1417 35.1497 40.3949 34.5514 40.7053C34.2129 40.8808 33.8272 40.9439 33.4504 40.8856C33.0735 40.8272 32.7251 40.6504 32.4554 40.3808L30.5231 38.4484L27.6759 41.2955L29.6083 43.2279C29.878 43.4975 30.0548 43.846 30.1131 44.2228C30.1715 44.5997 30.1083 44.9853 29.9328 45.3239C29.6224 45.9222 29.3692 46.5484 29.1765 47.1943C29.0661 47.565 28.839 47.8901 28.5289 48.1213C28.2188 48.3525 27.8423 48.4774 27.4555 48.4774H25.1367V52.0683H27.4555C27.8423 52.0682 28.2188 52.1931 28.5289 52.4243C28.839 52.6555 29.0661 52.9806 29.1765 53.3514C29.3692 53.9972 29.6224 54.6235 29.9328 55.2218C30.1083 55.5603 30.1715 55.9459 30.1131 56.3228C30.0548 56.6996 29.878 57.0481 29.6083 57.3177L27.6759 59.2501L30.5231 62.0975L32.4554 60.1649C32.7251 59.8952 33.0735 59.7184 33.4504 59.6601C33.8272 59.6017 34.2129 59.6649 34.5514 59.8403C35.1497 60.1507 35.7759 60.404 36.4218 60.5967C36.7925 60.7071 37.1177 60.9342 37.3489 61.2443C37.5801 61.5544 37.7049 61.9308 37.7049 62.3176V64.6365H41.2958V62.3176C41.2958 61.9308 41.4206 61.5544 41.6518 61.2443C41.883 60.9342 42.2082 60.7071 42.5789 60.5967C43.2248 60.404 43.851 60.1507 44.4493 59.8403C44.7878 59.6649 45.1735 59.6017 45.5503 59.6601C45.9272 59.7184 46.2757 59.8952 46.5453 60.1649L48.4776 62.0975L51.325 59.2501L49.3924 57.3177C49.1227 57.0481 48.9459 56.6996 48.8876 56.3228C48.8292 55.9459 48.8924 55.5603 49.0679 55.2218C49.3783 54.6235 49.6315 53.9972 49.8242 53.3514C49.9346 52.9806 50.1617 52.6555 50.4718 52.4243C50.7819 52.1931 51.1584 52.0682 51.5452 52.0683H53.864V48.4774H51.5452C51.1584 48.4774 50.7819 48.3525 50.4718 48.1213C50.1617 47.8901 49.9346 47.565 49.8242 47.1943ZM39.5004 57.4546C38.0799 57.4546 36.6914 57.0334 35.5104 56.2443C34.3293 55.4551 33.4088 54.3335 32.8652 53.0212C32.3216 51.7089 32.1794 50.2648 32.4565 48.8717C32.7336 47.4786 33.4176 46.1989 34.422 45.1945C35.4264 44.1901 36.7061 43.5061 38.0993 43.229C39.4924 42.9519 40.9364 43.0941 42.2487 43.6377C43.561 44.1813 44.6827 45.1018 45.4718 46.2828C46.261 47.4639 46.6822 48.8524 46.6822 50.2728C46.68 52.1769 45.9227 54.0024 44.5763 55.3488C43.2299 56.6952 41.4044 57.4525 39.5004 57.4546Z" fill="#EE562F"/>
<path d="M49.8242 47.1943C49.6315 46.5484 49.3783 45.9222 49.0679 45.3239C48.8924 44.9853 48.8292 44.5997 48.8876 44.2228C48.9459 43.846 49.1227 43.4975 49.3924 43.2279L51.325 41.2955L48.4776 38.4484L46.5453 40.3808C46.2757 40.6504 45.9272 40.8272 45.5503 40.8856C45.1735 40.9439 44.7878 40.8808 44.4493 40.7053C43.851 40.3949 43.2248 40.1417 42.5789 39.949C42.2082 39.8386 41.883 39.6114 41.6518 39.3013C41.4206 38.9913 41.2958 38.6148 41.2958 38.228V35.9092H37.7049V38.228C37.7049 38.6148 37.5801 38.9913 37.3489 39.3013C37.1177 39.6114 36.7925 39.8386 36.4218 39.949C35.7759 40.1417 35.1497 40.3949 34.5514 40.7053C34.2129 40.8808 33.8272 40.9439 33.4504 40.8856C33.0735 40.8272 32.7251 40.6504 32.4554 40.3808L30.5231 38.4484L27.6759 41.2955L29.6083 43.2279C29.878 43.4975 30.0548 43.846 30.1131 44.2228C30.1715 44.5997 30.1083 44.9853 29.9328 45.3239C29.6224 45.9222 29.3692 46.5484 29.1765 47.1943C29.0661 47.565 28.839 47.8901 28.5289 48.1213C28.2188 48.3525 27.8423 48.4774 27.4555 48.4774H25.1367V52.0683H27.4555C27.8423 52.0682 28.2188 52.1931 28.5289 52.4243C28.839 52.6555 29.0661 52.9806 29.1765 53.3514C29.3692 53.9972 29.6224 54.6235 29.9328 55.2218C30.1083 55.5603 30.1715 55.9459 30.1131 56.3228C30.0548 56.6996 29.878 57.0481 29.6083 57.3177L27.6759 59.2501L30.5231 62.0975L32.4554 60.1649C32.7251 59.8952 33.0735 59.7184 33.4504 59.6601C33.8272 59.6017 34.2129 59.6649 34.5514 59.8403C35.1497 60.1507 35.7759 60.404 36.4218 60.5967C36.7925 60.7071 37.1177 60.9342 37.3489 61.2443C37.5801 61.5544 37.7049 61.9308 37.7049 62.3176V64.6365H41.2958V62.3176C41.2958 61.9308 41.4206 61.5544 41.6518 61.2443C41.883 60.9342 42.2082 60.7071 42.5789 60.5967C43.2248 60.404 43.851 60.1507 44.4493 59.8403C44.7878 59.6649 45.1735 59.6017 45.5503 59.6601C45.9272 59.7184 46.2757 59.8952 46.5453 60.1649L48.4776 62.0975L51.325 59.2501L49.3924 57.3177C49.1227 57.0481 48.9459 56.6996 48.8876 56.3228C48.8292 55.9459 48.8924 55.5603 49.0679 55.2218C49.3783 54.6235 49.6315 53.9972 49.8242 53.3514C49.9346 52.9806 50.1617 52.6555 50.4718 52.4243C50.7819 52.1931 51.1584 52.0682 51.5452 52.0683H53.864V48.4774H51.5452C51.1584 48.4774 50.7819 48.3525 50.4718 48.1213C50.1617 47.8901 49.9346 47.565 49.8242 47.1943ZM39.5004 57.4546C38.0799 57.4546 36.6914 57.0334 35.5104 56.2443C34.3293 55.4551 33.4088 54.3335 32.8652 53.0212C32.3216 51.7089 32.1794 50.2648 32.4565 48.8717C32.7336 47.4786 33.4176 46.1989 34.422 45.1945C35.4264 44.1901 36.7061 43.5061 38.0993 43.229C39.4924 42.9519 40.9364 43.0941 42.2487 43.6377C43.561 44.1813 44.6827 45.1018 45.4718 46.2828C46.261 47.4639 46.6822 48.8524 46.6822 50.2728C46.68 52.1769 45.9227 54.0024 44.5763 55.3488C43.2299 56.6952 41.4044 57.4525 39.5004 57.4546Z" fill="url(#paint1_linear_2_4153)" fill-opacity="0.2"/>
<path d="M39.5011 53.8635C41.4843 53.8635 43.092 52.2558 43.092 50.2725C43.092 48.2893 41.4843 46.6816 39.5011 46.6816C37.5179 46.6816 35.9102 48.2893 35.9102 50.2725C35.9102 52.2558 37.5179 53.8635 39.5011 53.8635Z" fill="#444444"/>
<path d="M61.0449 2.54004V17.9554H76.4605L61.0449 2.54004Z" fill="#444444"/>
<path d="M10.7725 35.9094C12.7558 35.9094 14.3635 34.3017 14.3635 32.3184C14.3635 30.3352 12.7558 28.7275 10.7725 28.7275C8.78935 28.7275 7.18164 30.3352 7.18164 32.3184C7.18164 34.3017 8.78935 35.9094 10.7725 35.9094Z" fill="#EE562F"/>
<path d="M10.7725 35.9094C12.7558 35.9094 14.3635 34.3017 14.3635 32.3184C14.3635 30.3352 12.7558 28.7275 10.7725 28.7275C8.78935 28.7275 7.18164 30.3352 7.18164 32.3184C7.18164 34.3017 8.78935 35.9094 10.7725 35.9094Z" fill="url(#paint2_linear_2_4153)" fill-opacity="0.2"/>
<path d="M43.092 80.7959H35.9102V87.9777H43.092V80.7959Z" fill="#EE562F"/>
<path d="M43.092 80.7959H35.9102V87.9777H43.092V80.7959Z" fill="url(#paint3_linear_2_4153)" fill-opacity="0.2"/>
<path d="M14.3635 57.4541H7.18164V64.6359H14.3635V57.4541Z" fill="#EE562F"/>
<path d="M14.3635 57.4541H7.18164V64.6359H14.3635V57.4541Z" fill="url(#paint4_linear_2_4153)" fill-opacity="0.2"/>
<path d="M71.8185 28.7275H64.6367V35.9094H71.8185V28.7275Z" fill="#EE562F"/>
<path d="M71.8185 28.7275H64.6367V35.9094H71.8185V28.7275Z" fill="url(#paint5_linear_2_4153)" fill-opacity="0.2"/>
<path d="M79 21.5455H59.25C58.7738 21.5455 58.3171 21.3563 57.9804 21.0196C57.6437 20.6829 57.4545 20.2262 57.4545 19.75V0H0V100.545H79V21.5455ZM16.1591 7.18182H23.3409C23.8171 7.18182 24.2738 7.37098 24.6105 7.7077C24.9472 8.04441 25.1364 8.50109 25.1364 8.97727C25.1364 9.45346 24.9472 9.91014 24.6105 10.2469C24.2738 10.5836 23.8171 10.7727 23.3409 10.7727H16.1591C15.6829 10.7727 15.2262 10.5836 14.8895 10.2469C14.5528 9.91014 14.3636 9.45346 14.3636 8.97727C14.3636 8.50109 14.5528 8.04441 14.8895 7.7077C15.2262 7.37098 15.6829 7.18182 16.1591 7.18182ZM5.38636 7.18182H8.97727C9.45346 7.18182 9.91014 7.37098 10.2469 7.7077C10.5836 8.04441 10.7727 8.50109 10.7727 8.97727C10.7727 9.45346 10.5836 9.91014 10.2469 10.2469C9.91014 10.5836 9.45346 10.7727 8.97727 10.7727H5.38636C4.91018 10.7727 4.4535 10.5836 4.11679 10.2469C3.78007 9.91014 3.59091 9.45346 3.59091 8.97727C3.59091 8.50109 3.78007 8.04441 4.11679 7.7077C4.4535 7.37098 4.91018 7.18182 5.38636 7.18182ZM5.38636 14.3636H23.3409C23.8171 14.3636 24.2738 14.5528 24.6105 14.8895C24.9472 15.2262 25.1364 15.6829 25.1364 16.1591C25.1364 16.6353 24.9472 17.092 24.6105 17.4287C24.2738 17.7654 23.8171 17.9545 23.3409 17.9545H5.38636C4.91018 17.9545 4.4535 17.7654 4.11679 17.4287C3.78007 17.092 3.59091 16.6353 3.59091 16.1591C3.59091 15.6829 3.78007 15.2262 4.11679 14.8895C4.4535 14.5528 4.91018 14.3636 5.38636 14.3636ZM26.9318 91.5682H5.38636C4.91018 91.5682 4.4535 91.379 4.11679 91.0423C3.78007 90.7056 3.59091 90.2489 3.59091 89.7727C3.59091 89.2965 3.78007 88.8399 4.11679 88.5032C4.4535 88.1664 4.91018 87.9773 5.38636 87.9773H26.9318C27.408 87.9773 27.8647 88.1664 28.2014 88.5032C28.5381 88.8399 28.7273 89.2965 28.7273 89.7727C28.7273 90.2489 28.5381 90.7056 28.2014 91.0423C27.8647 91.379 27.408 91.5682 26.9318 91.5682ZM26.9318 84.3864H5.38636C4.91018 84.3864 4.4535 84.1972 4.11679 83.8605C3.78007 83.5238 3.59091 83.0671 3.59091 82.5909C3.59091 82.1147 3.78007 81.658 4.11679 81.3213C4.4535 80.9846 4.91018 80.7955 5.38636 80.7955H26.9318C27.408 80.7955 27.8647 80.9846 28.2014 81.3213C28.5381 81.658 28.7273 82.1147 28.7273 82.5909C28.7273 83.0671 28.5381 83.5238 28.2014 83.8605C27.8647 84.1972 27.408 84.3864 26.9318 84.3864ZM3.59091 75.4091C3.59091 74.9329 3.78007 74.4762 4.11679 74.1395C4.4535 73.8028 4.91018 73.6136 5.38636 73.6136H8.97727C9.45346 73.6136 9.91014 73.8028 10.2469 74.1395C10.5836 74.4762 10.7727 74.9329 10.7727 75.4091C10.7727 75.8853 10.5836 76.342 10.2469 76.6787C9.91014 77.0154 9.45346 77.2046 8.97727 77.2046H5.38636C4.91018 77.2046 4.4535 77.0154 4.11679 76.6787C3.78007 76.342 3.59091 75.8853 3.59091 75.4091ZM26.9318 77.2046H16.1591C15.6829 77.2046 15.2262 77.0154 14.8895 76.6787C14.5528 76.342 14.3636 75.8853 14.3636 75.4091C14.3636 74.9329 14.5528 74.4762 14.8895 74.1395C15.2262 73.8028 15.6829 73.6136 16.1591 73.6136H26.9318C27.408 73.6136 27.8647 73.8028 28.2014 74.1395C28.5381 74.4762 28.7273 74.9329 28.7273 75.4091C28.7273 75.8853 28.5381 76.342 28.2014 76.6787C27.8647 77.0154 27.408 77.2046 26.9318 77.2046ZM75.4091 37.7045C75.4091 38.1807 75.2199 38.6374 74.8832 38.9741C74.5465 39.3108 74.0898 39.5 73.6136 39.5H62.8409C62.5504 39.5001 62.2642 39.4296 62.007 39.2946C61.7498 39.1596 61.5292 38.964 61.3644 38.7248L54.9883 42.7094L52.8144 44.8834V44.8859H55.6591C56.1353 44.8859 56.592 45.0751 56.9287 45.4118C57.2654 45.7485 57.4545 46.2052 57.4545 46.6814V53.8632C57.4545 54.3394 57.2654 54.7961 56.9287 55.1328C56.592 55.4695 56.1353 55.6586 55.6591 55.6586H52.8155V55.6611L55.1344 57.9799C55.3011 58.1467 55.4334 58.3446 55.5236 58.5624C55.6138 58.7803 55.6603 59.0138 55.6603 59.2495C55.6603 59.4853 55.6138 59.7188 55.5236 59.9367C55.4334 60.1545 55.3011 60.3524 55.1344 60.5192L52.1018 63.5508L59.5328 73.1064C61.4712 72.0631 63.6828 71.6387 65.8697 71.8903C68.0566 72.1419 70.114 73.0575 71.7649 74.5137C73.4157 75.97 74.5808 77.8971 75.1033 80.0355C75.6258 82.174 75.4806 84.4212 74.6873 86.4747C73.894 88.5281 72.4906 90.2893 70.6661 91.521C68.8415 92.7527 66.6835 93.3959 64.4823 93.364C62.2812 93.3321 60.1426 92.6266 58.3546 91.3426C56.5665 90.0585 55.2148 88.2574 54.4813 86.1818H46.6818V89.7727C46.6818 90.2489 46.4927 90.7056 46.1559 91.0423C45.8192 91.379 45.3625 91.5682 44.8864 91.5682H34.1136C33.6375 91.5682 33.1808 91.379 32.8441 91.0423C32.5073 90.7056 32.3182 90.2489 32.3182 89.7727V79C32.3182 78.5238 32.5073 78.0671 32.8441 77.7304C33.1808 77.3937 33.6375 77.2046 34.1136 77.2046H44.8864C45.3625 77.2046 45.8192 77.3937 46.1559 77.7304C46.4927 78.0671 46.6818 78.5238 46.6818 79V82.5909H53.8636C53.8618 79.8951 54.8747 77.2972 56.7009 75.3142L49.5276 66.09C49.182 66.3398 48.7589 66.4585 48.3338 66.4248C47.9087 66.391 47.5095 66.2071 47.2077 65.906L44.8888 63.5872H44.8864V66.4318C44.8864 66.908 44.6972 67.3647 44.3605 67.7014C44.0238 68.0381 43.5671 68.2273 43.0909 68.2273H35.9091C35.4329 68.2273 34.9762 68.0381 34.6395 67.7014C34.3028 67.3647 34.1136 66.908 34.1136 66.4318V63.5883H34.1112L31.7923 65.9071C31.6256 66.0738 31.4277 66.2061 31.2098 66.2963C30.992 66.3866 30.7585 66.433 30.5227 66.433C30.2869 66.433 30.0535 66.3866 29.8356 66.2963C29.6178 66.2061 29.4198 66.0738 29.2531 65.9071L23.8668 60.5207C23.7 60.354 23.5678 60.1561 23.4775 59.9382C23.3873 59.7204 23.3408 59.4869 23.3408 59.2511C23.3408 59.0153 23.3873 58.7819 23.4775 58.564C23.5678 58.3462 23.7 58.1482 23.8668 57.9815L26.1856 55.6627L26.1845 55.6591H23.3409C22.8647 55.6591 22.408 55.4699 22.0713 55.1332C21.7346 54.7965 21.5455 54.3398 21.5455 53.8636V46.6818C21.5455 46.2056 21.7346 45.749 22.0713 45.4122C22.408 45.0755 22.8647 44.8864 23.3409 44.8864H26.1845L26.1856 44.8839L24.0117 42.7098L15.7122 37.5254C14.8295 38.3653 13.7475 38.9666 12.5682 39.2727V53.8636H16.1591C16.6353 53.8636 17.092 54.0528 17.4287 54.3895C17.7654 54.7262 17.9545 55.1829 17.9545 55.6591V66.4318C17.9545 66.908 17.7654 67.3647 17.4287 67.7014C17.092 68.0381 16.6353 68.2273 16.1591 68.2273H5.38636C4.91018 68.2273 4.4535 68.0381 4.11679 67.7014C3.78007 67.3647 3.59091 66.908 3.59091 66.4318V55.6591C3.59091 55.1829 3.78007 54.7262 4.11679 54.3895C4.4535 54.0528 4.91018 53.8636 5.38636 53.8636H8.97727V39.2727C7.58612 38.9135 6.33467 38.1454 5.38466 37.0675C4.43465 35.9897 3.82976 34.6517 3.64818 33.2265C3.46661 31.8012 3.71668 30.3543 4.36609 29.0727C5.0155 27.791 6.03438 26.7337 7.29105 26.0372C8.54771 25.3407 9.98439 25.0372 11.4154 25.1658C12.8464 25.2945 14.2059 25.8493 15.3182 26.7587C16.4305 27.6681 17.2445 28.8903 17.6549 30.2671C18.0654 31.644 18.0534 33.1124 17.6206 34.4824L24.8767 39.0159L29.2531 34.6395C29.4198 34.4727 29.6178 34.3405 29.8356 34.2503C30.0535 34.16 30.2869 34.1136 30.5227 34.1136C30.7585 34.1136 30.992 34.16 31.2098 34.2503C31.4277 34.3405 31.6256 34.4727 31.7923 34.6395L34.1112 36.9583L34.1136 36.9572V34.1136C34.1136 33.6375 34.3028 33.1808 34.6395 32.8441C34.9762 32.5073 35.4329 32.3182 35.9091 32.3182H37.7045V21.5455H30.5227C30.0465 21.5455 29.5899 21.3563 29.2531 21.0196C28.9164 20.6829 28.7273 20.2262 28.7273 19.75V8.97727C28.7273 8.50109 28.9164 8.04441 29.2531 7.7077C29.5899 7.37098 30.0465 7.18182 30.5227 7.18182H48.4773C48.9535 7.18182 49.4101 7.37098 49.7469 7.7077C50.0836 8.04441 50.2727 8.50109 50.2727 8.97727V19.75C50.2727 20.2262 50.0836 20.6829 49.7469 21.0196C49.4101 21.3563 48.9535 21.5455 48.4773 21.5455H41.2955V32.3182H43.0909C43.5671 32.3182 44.0238 32.5073 44.3605 32.8441C44.6972 33.1808 44.8864 33.6375 44.8864 34.1136V36.9572L44.8888 36.9583L47.2077 34.6395C47.3744 34.4727 47.5723 34.3405 47.7902 34.2503C48.008 34.16 48.2415 34.1136 48.4773 34.1136C48.7131 34.1136 48.9465 34.16 49.1644 34.2503C49.3822 34.3405 49.5802 34.4727 49.7469 34.6395L54.1233 39.0159L61.0455 34.6895V26.9318C61.0455 26.4556 61.2346 25.999 61.5713 25.6622C61.908 25.3255 62.3647 25.1364 62.8409 25.1364H73.6136C74.0898 25.1364 74.5465 25.3255 74.8832 25.6622C75.2199 25.999 75.4091 26.4556 75.4091 26.9318V37.7045Z" fill="#444444"/>
<path d="M64.6349 89.7728C68.6014 89.7728 71.8168 86.5574 71.8168 82.591C71.8168 78.6246 68.6014 75.4092 64.6349 75.4092C60.6685 75.4092 57.4531 78.6246 57.4531 82.591C57.4531 86.5574 60.6685 89.7728 64.6349 89.7728Z" fill="#EE562F"/>
<path d="M64.6349 89.7728C68.6014 89.7728 71.8168 86.5574 71.8168 82.591C71.8168 78.6246 68.6014 75.4092 64.6349 75.4092C60.6685 75.4092 57.4531 78.6246 57.4531 82.591C57.4531 86.5574 60.6685 89.7728 64.6349 89.7728Z" fill="url(#paint6_linear_2_4153)" fill-opacity="0.2"/>
<defs>
<linearGradient id="paint0_linear_2_4153" x1="39.5002" y1="10.7725" x2="39.5002" y2="17.9543" gradientUnits="userSpaceOnUse">
<stop stop-color="white"/>
<stop offset="1" stop-color="white" stop-opacity="0"/>
</linearGradient>
<linearGradient id="paint1_linear_2_4153" x1="39.5004" y1="35.9092" x2="39.5004" y2="64.6365" gradientUnits="userSpaceOnUse">
<stop stop-color="white"/>
<stop offset="1" stop-color="white" stop-opacity="0"/>
</linearGradient>
<linearGradient id="paint2_linear_2_4153" x1="10.7725" y1="28.7275" x2="10.7725" y2="35.9094" gradientUnits="userSpaceOnUse">
<stop stop-color="white"/>
<stop offset="1" stop-color="white" stop-opacity="0"/>
</linearGradient>
<linearGradient id="paint3_linear_2_4153" x1="39.5011" y1="80.7959" x2="39.5011" y2="87.9777" gradientUnits="userSpaceOnUse">
<stop stop-color="white"/>
<stop offset="1" stop-color="white" stop-opacity="0"/>
</linearGradient>
<linearGradient id="paint4_linear_2_4153" x1="10.7725" y1="57.4541" x2="10.7725" y2="64.6359" gradientUnits="userSpaceOnUse">
<stop stop-color="white"/>
<stop offset="1" stop-color="white" stop-opacity="0"/>
</linearGradient>
<linearGradient id="paint5_linear_2_4153" x1="68.2276" y1="28.7275" x2="68.2276" y2="35.9094" gradientUnits="userSpaceOnUse">
<stop stop-color="white"/>
<stop offset="1" stop-color="white" stop-opacity="0"/>
</linearGradient>
<linearGradient id="paint6_linear_2_4153" x1="64.6349" y1="75.4092" x2="64.6349" y2="89.7728" gradientUnits="userSpaceOnUse">
<stop stop-color="white"/>
<stop offset="1" stop-color="white" stop-opacity="0"/>
</linearGradient>
</defs>
</svg>
