<svg width="100" height="100" viewBox="0 0 100 100" fill="none" xmlns="http://www.w3.org/2000/svg">
<path fill-rule="evenodd" clip-rule="evenodd" d="M8.85166 41.7762C5.63147 38.6844 3.17429 34.8862 1.67422 30.6816C0.17416 26.477 -0.327697 21.9813 0.208296 17.5494L19.8495 37.263L37.7919 20.5052L17.5494 0.208296C21.9813 -0.327697 26.477 0.17416 30.6816 1.67422C34.8862 3.17429 38.6844 5.63147 41.7762 8.85166C49.3323 16.4078 52.449 27.1169 49.7129 36.1408L49.4048 37.1736L52.1772 39.946L47.4659 44.6754L44.2587 41.4863L35.9958 49.7491C27.0082 52.4128 16.3716 49.278 8.85166 41.7762ZM99.7248 89.3781L89.3781 99.7248C89.0289 99.955 88.6059 100.046 88.193 99.9784C87.7801 99.9113 87.4076 99.6914 87.1493 99.3624L52.0866 64.2997L59.5703 56.816L56.3811 53.6268L61.1105 48.8974L99.3624 87.1493C99.6914 87.4076 99.9113 87.7801 99.9784 88.193C100.046 88.6059 99.955 89.0289 99.7248 89.3781Z" fill="#444444"/>
<path d="M45.5633 59.3347L36.3945 68.4854L39.5836 71.6746L12.5301 98.7282C12.2952 98.9715 12.0136 99.165 11.7023 99.2972C11.391 99.4293 11.0563 99.4975 10.718 99.4975C10.3798 99.4975 10.0451 99.4293 9.73377 99.2972C9.42245 99.165 9.14094 98.9715 8.90602 98.7282L2.34649 92.078C2.10317 91.8431 1.90965 91.5616 1.77748 91.2503C1.64531 90.939 1.5772 90.6042 1.5772 90.266C1.5772 89.9278 1.64531 89.593 1.77748 89.2817C1.90965 88.9704 2.10317 88.6889 2.34649 88.454L29.3457 61.4729L32.5348 64.6621L41.7037 55.4932L38.5145 52.3041L44.2043 46.6143L44.8385 47.2485L53.7718 56.1818L54.406 56.816L48.7525 62.5058L45.5633 59.3347Z" fill="#EE562F"/>
<path d="M80.0824 17.1689L79.5569 16.0273C79.4224 15.7275 79.3816 15.3942 79.4398 15.0708C79.498 14.7475 79.6525 14.4493 79.8831 14.2153L92.1143 1.98408L99.1268 8.99662L86.8775 21.1916C86.6435 21.4221 86.3453 21.5766 86.0219 21.6348C85.6986 21.693 85.3652 21.6522 85.0655 21.5177L83.9239 20.9922L53.8261 51.09L50.0028 47.2485L80.0824 17.1689Z" fill="#EE562F"/>
</svg>
