<svg width="86" height="99" viewBox="0 0 86 99" fill="none" xmlns="http://www.w3.org/2000/svg">
<path d="M25.52 94.01C26.79 92.73 26.79 90.66 25.52 89.38C8.97 72.77 9.54 73.34 8.97 72.77C7.74 71.53 5.6 71.54 4.37 72.77L0 77.15L21.15 98.38L25.51 94.01H25.52Z" fill="#444444"/>
<path d="M26.9601 84.5496C30.6601 82.4496 28.9301 82.6796 50.1101 84.3696C52.0201 84.5196 53.7201 84.0296 55.0001 82.9596L84.8801 58.4396C86.2701 57.2796 85.3801 54.3896 83.5201 52.8796C82.3301 51.9196 80.9101 51.5996 80.0301 52.0896C79.1701 52.8596 73.6501 57.7296 66.8101 62.4096C67.1001 64.2096 66.2901 65.8496 64.5401 66.7896L53.6401 72.5996C51.2801 74.1996 46.7901 72.5196 45.1101 72.6096C43.1101 72.7196 42.9601 69.7296 44.9301 69.6096C46.7501 69.5096 51.0401 70.7796 51.9601 70.0996L63.1301 64.1296C65.2801 62.9896 62.3401 59.5896 59.4101 60.0296C46.8701 61.8796 47.1801 61.8696 46.8601 61.8196C30.9101 59.7596 30.8001 59.7896 27.8801 60.5596C24.8801 61.3396 22.3601 63.1896 20.5901 65.9096C19.2601 67.9396 16.9001 70.3696 13.5801 73.1396L25.6901 85.2996C25.9601 85.1196 26.3201 84.9096 26.9501 84.5496H26.9601Z" fill="#444444"/>
<circle cx="50" cy="26" r="26" fill="#EE562F"/>
<circle cx="50" cy="26" r="26" fill="url(#paint0_linear_2_4088)" fill-opacity="0.2"/>
<path d="M43.416 41V11.25H51.2493C54.8882 11.25 57.5827 11.9861 59.3327 13.4583C61.1105 14.9306 61.9993 17.0694 61.9993 19.875C61.9993 21.7639 61.5688 23.3889 60.7077 24.75C59.8466 26.0833 58.5688 27.1111 56.8743 27.8333C55.2077 28.5556 53.1382 28.9167 50.666 28.9167H47.166V41H43.416ZM39.791 35.3333V32.625H54.041V35.3333H39.791ZM39.791 28.9167V25.75H49.3327V28.9167H39.791ZM50.1243 25.75C51.8188 25.75 53.2493 25.5694 54.416 25.2083C55.6105 24.8472 56.5271 24.25 57.166 23.4167C57.8049 22.5833 58.1243 21.4444 58.1243 20C58.1243 18.1111 57.541 16.7083 56.3743 15.7917C55.2077 14.875 53.3882 14.4167 50.916 14.4167H47.166V25.75H50.1243Z" fill="white"/>
<defs>
<linearGradient id="paint0_linear_2_4088" x1="71.1875" y1="-2.44531e-06" x2="32.5066" y2="52.0927" gradientUnits="userSpaceOnUse">
<stop stop-color="white"/>
<stop offset="1" stop-color="white" stop-opacity="0"/>
</linearGradient>
</defs>
</svg>
